# xmcd
#
# Track frame offsets:
#	150
#	16451
#	32784
#	44532
#	54556
#	68313
#	80855
#	93979
#	108084
#	121930
#	136814
#	148688
#	164585
#	173122
#	186246
#	203933
#
# Disc length: 2865 seconds
#
# Revision: 2
# Processed by: cddbd v1.5.2PL0 Copyright (c) Steve Scherf et al.
# Submitted via: EasyCDDAExtractor 15.3.0.1
#
DISCID=de0b2f10
DTITLE=Taxmeni - Písničky táborových ohňů
DYEAR=2013
DGENRE=Country
TTITLE0=Růže z Texasu
TTITLE1=Askalona
TTITLE2=Niagara
TTITLE3=Zlatokop Tom
TTITLE4=Pampelišky
TTITLE5=Japonečka
TTITLE6=Na hradě Okoři
TTITLE7=Táboráku plápolej
TTITLE8=V dáli za horama
TTITLE9=Marta
TTITLE10=Dajána
TTITLE11=Až ztichnou Bílé skály
TTITLE12=Červená řeka
TTITLE13=Rikatádo
TTITLE14=Černý muž
TTITLE15=Řeka hučí
EXTD=
EXTT0=
EXTT1=
EXTT2=
EXTT3=
EXTT4=
EXTT5=
EXTT6=
EXTT7=
EXTT8=
EXTT9=
EXTT10=
EXTT11=
EXTT12=
EXTT13=
EXTT14=
EXTT15=
PLAYORDER=
